<?xml version="1.0" encoding="UTF-8" standalone="no"?>
<!DOCTYPE svg PUBLIC "-//W3C//DTD SVG 1.1//EN"
 "http://www.w3.org/Graphics/SVG/1.1/DTD/svg11.dtd">
<!-- Generated by graphviz version 12.1.0 (20240811.2233)
 -->
<!-- Title: Tree Pages: 1 -->
<svg width="720pt" height="277pt"
 viewBox="0.00 0.00 719.75 277.25" xmlns="http://www.w3.org/2000/svg" xmlns:xlink="http://www.w3.org/1999/xlink">
<g id="graph0" class="graph" transform="scale(1 1) rotate(0) translate(4 273.25)">
<title>Tree</title>
<polygon fill="white" stroke="none" points="-4,4 -4,-273.25 715.75,-273.25 715.75,4 -4,4"/>
<!-- 0 -->
<g id="node1" class="node">
<title>0</title>
<path fill="#efb286" stroke="black" d="M438.75,-269.25C438.75,-269.25 252.5,-269.25 252.5,-269.25 246.5,-269.25 240.5,-263.25 240.5,-257.25 240.5,-257.25 240.5,-210.25 240.5,-210.25 240.5,-204.25 246.5,-198.25 252.5,-198.25 252.5,-198.25 438.75,-198.25 438.75,-198.25 444.75,-198.25 450.75,-204.25 450.75,-210.25 450.75,-210.25 450.75,-257.25 450.75,-257.25 450.75,-263.25 444.75,-269.25 438.75,-269.25"/>
<text text-anchor="middle" x="345.62" y="-251.95" font-family="Helvetica,sans-Serif" font-size="14.00">education &lt;= 1.5</text>
<text text-anchor="middle" x="345.62" y="-236.2" font-family="Helvetica,sans-Serif" font-size="14.00">squared_error = 132001666.667</text>
<text text-anchor="middle" x="345.62" y="-220.45" font-family="Helvetica,sans-Serif" font-size="14.00">samples = 6</text>
<text text-anchor="middle" x="345.62" y="-204.7" font-family="Helvetica,sans-Serif" font-size="14.00">value = 0.0</text>
</g>
<!-- 1 -->
<g id="node2" class="node">
<title>1</title>
<path fill="#f7d7c1" stroke="black" d="M327,-162.25C327,-162.25 148.25,-162.25 148.25,-162.25 142.25,-162.25 136.25,-156.25 136.25,-150.25 136.25,-150.25 136.25,-103.25 136.25,-103.25 136.25,-97.25 142.25,-91.25 148.25,-91.25 148.25,-91.25 327,-91.25 327,-91.25 333,-91.25 339,-97.25 339,-103.25 339,-103.25 339,-150.25 339,-150.25 339,-156.25 333,-162.25 327,-162.25"/>
<text text-anchor="middle" x="237.62" y="-144.95" font-family="Helvetica,sans-Serif" font-size="14.00">age &lt;= 27.5</text>
<text text-anchor="middle" x="237.62" y="-129.2" font-family="Helvetica,sans-Serif" font-size="14.00">squared_error = 88746666.667</text>
<text text-anchor="middle" x="237.62" y="-113.45" font-family="Helvetica,sans-Serif" font-size="14.00">samples = 3</text>
<text text-anchor="middle" x="237.62" y="-97.7" font-family="Helvetica,sans-Serif" font-size="14.00">value = &#45;9150.0</text>
</g>
<!-- 0&#45;&gt;1 -->
<g id="edge1" class="edge">
<title>0&#45;&gt;1</title>
<path fill="none" stroke="black" d="M309.66,-197.79C300.65,-189.02 290.87,-179.52 281.51,-170.42"/>
<polygon fill="black" stroke="black" points="284.13,-168.08 274.52,-163.62 279.25,-173.1 284.13,-168.08"/>
<text text-anchor="middle" x="273.78" y="-182.13" font-family="Helvetica,sans-Serif" font-size="14.00">True</text>
</g>
<!-- 4 -->
<g id="node5" class="node">
<title>4</title>
<path fill="#e78c4a" stroke="black" d="M539.88,-162.25C539.88,-162.25 369.38,-162.25 369.38,-162.25 363.38,-162.25 357.38,-156.25 357.38,-150.25 357.38,-150.25 357.38,-103.25 357.38,-103.25 357.38,-97.25 363.38,-91.25 369.38,-91.25 369.38,-91.25 539.88,-91.25 539.88,-91.25 545.88,-91.25 551.88,-97.25 551.88,-103.25 551.88,-103.25 551.88,-150.25 551.88,-150.25 551.88,-156.25 545.88,-162.25 539.88,-162.25"/>
<text text-anchor="middle" x="454.62" y="-144.95" font-family="Helvetica,sans-Serif" font-size="14.00">experience &lt;= 6.0</text>
<text text-anchor="middle" x="454.62" y="-129.2" font-family="Helvetica,sans-Serif" font-size="14.00">squared_error = 7811666.667</text>
<text text-anchor="middle" x="454.62" y="-113.45" font-family="Helvetica,sans-Serif" font-size="14.00">samples = 3</text>
<text text-anchor="middle" x="454.62" y="-97.7" font-family="Helvetica,sans-Serif" font-size="14.00">value = 9150.0</text>
</g>
<!-- 0&#45;&gt;4 -->
<g id="edge4" class="edge">
<title>0&#45;&gt;4</title>
<path fill="none" stroke="black" d="M381.92,-197.79C391.02,-189.02 400.89,-179.52 410.33,-170.42"/>
<polygon fill="black" stroke="black" points="412.62,-173.07 417.4,-163.61 407.77,-168.03 412.62,-173.07"/>
<text text-anchor="middle" x="418.02" y="-182.13" font-family="Helvetica,sans-Serif" font-size="14.00">False</text>
</g>
<!-- 2 -->
<g id="node3" class="node">
<title>2</title>
<path fill="#ffffff" stroke="black" d="M123.25,-55.25C123.25,-55.25 12,-55.25 12,-55.25 6,-55.25 0,-49.25 0,-43.25 0,-43.25 0,-12 0,-12 0,-6 6,0 12,0 12,0 123.25,0 123.25,0 129.25,0 135.25,-6 135.25,-12 135.25,-12 135.25,-43.25 135.25,-43.25 135.25,-49.25 129.25,-55.25 123.25,-55.25"/>
<text text-anchor="middle" x="67.62" y="-37.95" font-family="Helvetica,sans-Serif" font-size="14.00">squared_error = 0.0</text>
<text text-anchor="middle" x="67.62" y="-22.2" font-family="Helvetica,sans-Serif" font-size="14.00">samples = 1</text>
<text text-anchor="middle" x="67.62" y="-6.45" font-family="Helvetica,sans-Serif" font-size="14.00">value = &#45;18750.0</text>
</g>
<!-- 1&#45;&gt;2 -->
<g id="edge2" class="edge">
<title>1&#45;&gt;2</title>
<path fill="none" stroke="black" d="M176.73,-90.96C159.77,-81.27 141.41,-70.78 124.67,-61.22"/>
<polygon fill="black" stroke="black" points="126.76,-58.38 116.35,-56.46 123.29,-64.46 126.76,-58.38"/>
</g>
<!-- 3 -->
<g id="node4" class="node">
<title>3</title>
<path fill="#f3c4a2" stroke="black" d="M329.5,-55.25C329.5,-55.25 165.75,-55.25 165.75,-55.25 159.75,-55.25 153.75,-49.25 153.75,-43.25 153.75,-43.25 153.75,-12 153.75,-12 153.75,-6 159.75,0 165.75,0 165.75,0 329.5,0 329.5,0 335.5,0 341.5,-6 341.5,-12 341.5,-12 341.5,-43.25 341.5,-43.25 341.5,-49.25 335.5,-55.25 329.5,-55.25"/>
<text text-anchor="middle" x="247.62" y="-37.95" font-family="Helvetica,sans-Serif" font-size="14.00">squared_error = 64000000.0</text>
<text text-anchor="middle" x="247.62" y="-22.2" font-family="Helvetica,sans-Serif" font-size="14.00">samples = 2</text>
<text text-anchor="middle" x="247.62" y="-6.45" font-family="Helvetica,sans-Serif" font-size="14.00">value = &#45;4350.0</text>
</g>
<!-- 1&#45;&gt;3 -->
<g id="edge3" class="edge">
<title>1&#45;&gt;3</title>
<path fill="none" stroke="black" d="M241.21,-90.96C242.01,-83.13 242.87,-74.79 243.69,-66.83"/>
<polygon fill="black" stroke="black" points="247.15,-67.37 244.7,-57.06 240.19,-66.65 247.15,-67.37"/>
</g>
<!-- 5 -->
<g id="node6" class="node">
<title>5</title>
<path fill="#e58139" stroke="black" d="M501.25,-55.25C501.25,-55.25 390,-55.25 390,-55.25 384,-55.25 378,-49.25 378,-43.25 378,-43.25 378,-12 378,-12 378,-6 384,0 390,0 390,0 501.25,0 501.25,0 507.25,0 513.25,-6 513.25,-12 513.25,-12 513.25,-43.25 513.25,-43.25 513.25,-49.25 507.25,-55.25 501.25,-55.25"/>
<text text-anchor="middle" x="445.62" y="-37.95" font-family="Helvetica,sans-Serif" font-size="14.00">squared_error = 0.0</text>
<text text-anchor="middle" x="445.62" y="-22.2" font-family="Helvetica,sans-Serif" font-size="14.00">samples = 1</text>
<text text-anchor="middle" x="445.62" y="-6.45" font-family="Helvetica,sans-Serif" font-size="14.00">value = 11850.0</text>
</g>
<!-- 4&#45;&gt;5 -->
<g id="edge5" class="edge">
<title>4&#45;&gt;5</title>
<path fill="none" stroke="black" d="M451.4,-90.96C450.68,-83.13 449.9,-74.79 449.17,-66.83"/>
<polygon fill="black" stroke="black" points="452.67,-66.7 448.26,-57.06 445.7,-67.34 452.67,-66.7"/>
</g>
<!-- 6 -->
<g id="node7" class="node">
<title>6</title>
<path fill="#e89253" stroke="black" d="M699.75,-55.25C699.75,-55.25 543.5,-55.25 543.5,-55.25 537.5,-55.25 531.5,-49.25 531.5,-43.25 531.5,-43.25 531.5,-12 531.5,-12 531.5,-6 537.5,0 543.5,0 543.5,0 699.75,0 699.75,0 705.75,0 711.75,-6 711.75,-12 711.75,-12 711.75,-43.25 711.75,-43.25 711.75,-49.25 705.75,-55.25 699.75,-55.25"/>
<text text-anchor="middle" x="621.62" y="-37.95" font-family="Helvetica,sans-Serif" font-size="14.00">squared_error = 6250000.0</text>
<text text-anchor="middle" x="621.62" y="-22.2" font-family="Helvetica,sans-Serif" font-size="14.00">samples = 2</text>
<text text-anchor="middle" x="621.62" y="-6.45" font-family="Helvetica,sans-Serif" font-size="14.00">value = 7800.0</text>
</g>
<!-- 4&#45;&gt;6 -->
<g id="edge6" class="edge">
<title>4&#45;&gt;6</title>
<path fill="none" stroke="black" d="M514.44,-90.96C530.95,-81.36 548.81,-70.97 565.12,-61.49"/>
<polygon fill="black" stroke="black" points="566.86,-64.52 573.75,-56.47 563.34,-58.47 566.86,-64.52"/>
</g>
</g>
</svg>