<?xml version="1.0" encoding="UTF-8" standalone="no"?>
<!DOCTYPE svg PUBLIC "-//W3C//DTD SVG 1.1//EN"
 "http://www.w3.org/Graphics/SVG/1.1/DTD/svg11.dtd">
<!-- Generated by graphviz version 12.1.0 (20240811.2233)
 -->
<!-- Title: Tree Pages: 1 -->
<svg width="713pt" height="277pt"
 viewBox="0.00 0.00 712.50 277.25" xmlns="http://www.w3.org/2000/svg" xmlns:xlink="http://www.w3.org/1999/xlink">
<g id="graph0" class="graph" transform="scale(1 1) rotate(0) translate(4 273.25)">
<title>Tree</title>
<polygon fill="white" stroke="none" points="-4,4 -4,-273.25 708.5,-273.25 708.5,4 -4,4"/>
<!-- 0 -->
<g id="node1" class="node">
<title>0</title>
<path fill="#efb286" stroke="black" d="M444.75,-269.25C444.75,-269.25 258.5,-269.25 258.5,-269.25 252.5,-269.25 246.5,-263.25 246.5,-257.25 246.5,-257.25 246.5,-210.25 246.5,-210.25 246.5,-204.25 252.5,-198.25 258.5,-198.25 258.5,-198.25 444.75,-198.25 444.75,-198.25 450.75,-198.25 456.75,-204.25 456.75,-210.25 456.75,-210.25 456.75,-257.25 456.75,-257.25 456.75,-263.25 450.75,-269.25 444.75,-269.25"/>
<text text-anchor="middle" x="351.62" y="-251.95" font-family="Helvetica,sans-Serif" font-size="14.00">education &lt;= 1.5</text>
<text text-anchor="middle" x="351.62" y="-236.2" font-family="Helvetica,sans-Serif" font-size="14.00">squared_error = 157472222.222</text>
<text text-anchor="middle" x="351.62" y="-220.45" font-family="Helvetica,sans-Serif" font-size="14.00">samples = 6</text>
<text text-anchor="middle" x="351.62" y="-204.7" font-family="Helvetica,sans-Serif" font-size="14.00">value = 0.0</text>
</g>
<!-- 1 -->
<g id="node2" class="node">
<title>1</title>
<path fill="#f7d7c1" stroke="black" d="M333,-162.25C333,-162.25 154.25,-162.25 154.25,-162.25 148.25,-162.25 142.25,-156.25 142.25,-150.25 142.25,-150.25 142.25,-103.25 142.25,-103.25 142.25,-97.25 148.25,-91.25 154.25,-91.25 154.25,-91.25 333,-91.25 333,-91.25 339,-91.25 345,-97.25 345,-103.25 345,-103.25 345,-150.25 345,-150.25 345,-156.25 339,-162.25 333,-162.25"/>
<text text-anchor="middle" x="243.62" y="-144.95" font-family="Helvetica,sans-Serif" font-size="14.00">age &lt;= 27.5</text>
<text text-anchor="middle" x="243.62" y="-129.2" font-family="Helvetica,sans-Serif" font-size="14.00">squared_error = 99555555.556</text>
<text text-anchor="middle" x="243.62" y="-113.45" font-family="Helvetica,sans-Serif" font-size="14.00">samples = 3</text>
<text text-anchor="middle" x="243.62" y="-97.7" font-family="Helvetica,sans-Serif" font-size="14.00">value = &#45;10166.667</text>
</g>
<!-- 0&#45;&gt;1 -->
<g id="edge1" class="edge">
<title>0&#45;&gt;1</title>
<path fill="none" stroke="black" d="M315.66,-197.79C306.65,-189.02 296.87,-179.52 287.51,-170.42"/>
<polygon fill="black" stroke="black" points="290.13,-168.08 280.52,-163.62 285.25,-173.1 290.13,-168.08"/>
<text text-anchor="middle" x="279.78" y="-182.13" font-family="Helvetica,sans-Serif" font-size="14.00">True</text>
</g>
<!-- 4 -->
<g id="node5" class="node">
<title>4</title>
<path fill="#e78c4a" stroke="black" d="M546.25,-162.25C546.25,-162.25 375,-162.25 375,-162.25 369,-162.25 363,-156.25 363,-150.25 363,-150.25 363,-103.25 363,-103.25 363,-97.25 369,-91.25 375,-91.25 375,-91.25 546.25,-91.25 546.25,-91.25 552.25,-91.25 558.25,-97.25 558.25,-103.25 558.25,-103.25 558.25,-150.25 558.25,-150.25 558.25,-156.25 552.25,-162.25 546.25,-162.25"/>
<text text-anchor="middle" x="460.62" y="-144.95" font-family="Helvetica,sans-Serif" font-size="14.00">age &lt;= 49.0</text>
<text text-anchor="middle" x="460.62" y="-129.2" font-family="Helvetica,sans-Serif" font-size="14.00">squared_error = 8666666.667</text>
<text text-anchor="middle" x="460.62" y="-113.45" font-family="Helvetica,sans-Serif" font-size="14.00">samples = 3</text>
<text text-anchor="middle" x="460.62" y="-97.7" font-family="Helvetica,sans-Serif" font-size="14.00">value = 10166.667</text>
</g>
<!-- 0&#45;&gt;4 -->
<g id="edge4" class="edge">
<title>0&#45;&gt;4</title>
<path fill="none" stroke="black" d="M387.92,-197.79C397.02,-189.02 406.89,-179.52 416.33,-170.42"/>
<polygon fill="black" stroke="black" points="418.62,-173.07 423.4,-163.61 413.77,-168.03 418.62,-173.07"/>
<text text-anchor="middle" x="424.02" y="-182.13" font-family="Helvetica,sans-Serif" font-size="14.00">False</text>
</g>
<!-- 2 -->
<g id="node3" class="node">
<title>2</title>
<path fill="#ffffff" stroke="black" d="M123.25,-55.25C123.25,-55.25 12,-55.25 12,-55.25 6,-55.25 0,-49.25 0,-43.25 0,-43.25 0,-12 0,-12 0,-6 6,0 12,0 12,0 123.25,0 123.25,0 129.25,0 135.25,-6 135.25,-12 135.25,-12 135.25,-43.25 135.25,-43.25 135.25,-49.25 129.25,-55.25 123.25,-55.25"/>
<text text-anchor="middle" x="67.62" y="-37.95" font-family="Helvetica,sans-Serif" font-size="14.00">squared_error = 0.0</text>
<text text-anchor="middle" x="67.62" y="-22.2" font-family="Helvetica,sans-Serif" font-size="14.00">samples = 1</text>
<text text-anchor="middle" x="67.62" y="-6.45" font-family="Helvetica,sans-Serif" font-size="14.00">value = &#45;20833.333</text>
</g>
<!-- 1&#45;&gt;2 -->
<g id="edge2" class="edge">
<title>1&#45;&gt;2</title>
<path fill="none" stroke="black" d="M180.58,-90.96C163.02,-81.27 144.01,-70.78 126.69,-61.22"/>
<polygon fill="black" stroke="black" points="128.48,-58.21 118.03,-56.44 125.09,-64.34 128.48,-58.21"/>
</g>
<!-- 3 -->
<g id="node4" class="node">
<title>3</title>
<path fill="#f3c4a2" stroke="black" d="M329.5,-55.25C329.5,-55.25 165.75,-55.25 165.75,-55.25 159.75,-55.25 153.75,-49.25 153.75,-43.25 153.75,-43.25 153.75,-12 153.75,-12 153.75,-6 159.75,0 165.75,0 165.75,0 329.5,0 329.5,0 335.5,0 341.5,-6 341.5,-12 341.5,-12 341.5,-43.25 341.5,-43.25 341.5,-49.25 335.5,-55.25 329.5,-55.25"/>
<text text-anchor="middle" x="247.62" y="-37.95" font-family="Helvetica,sans-Serif" font-size="14.00">squared_error = 64000000.0</text>
<text text-anchor="middle" x="247.62" y="-22.2" font-family="Helvetica,sans-Serif" font-size="14.00">samples = 2</text>
<text text-anchor="middle" x="247.62" y="-6.45" font-family="Helvetica,sans-Serif" font-size="14.00">value = &#45;4833.333</text>
</g>
<!-- 1&#45;&gt;3 -->
<g id="edge3" class="edge">
<title>1&#45;&gt;3</title>
<path fill="none" stroke="black" d="M245.06,-90.96C245.38,-83.13 245.72,-74.79 246.05,-66.83"/>
<polygon fill="black" stroke="black" points="249.54,-67.2 246.45,-57.07 242.54,-66.92 249.54,-67.2"/>
</g>
<!-- 5 -->
<g id="node6" class="node">
<title>5</title>
<path fill="#e89253" stroke="black" d="M534.75,-55.25C534.75,-55.25 378.5,-55.25 378.5,-55.25 372.5,-55.25 366.5,-49.25 366.5,-43.25 366.5,-43.25 366.5,-12 366.5,-12 366.5,-6 372.5,0 378.5,0 378.5,0 534.75,0 534.75,0 540.75,0 546.75,-6 546.75,-12 546.75,-12 546.75,-43.25 546.75,-43.25 546.75,-49.25 540.75,-55.25 534.75,-55.25"/>
<text text-anchor="middle" x="456.62" y="-37.95" font-family="Helvetica,sans-Serif" font-size="14.00">squared_error = 6250000.0</text>
<text text-anchor="middle" x="456.62" y="-22.2" font-family="Helvetica,sans-Serif" font-size="14.00">samples = 2</text>
<text text-anchor="middle" x="456.62" y="-6.45" font-family="Helvetica,sans-Serif" font-size="14.00">value = 8666.667</text>
</g>
<!-- 4&#45;&gt;5 -->
<g id="edge5" class="edge">
<title>4&#45;&gt;5</title>
<path fill="none" stroke="black" d="M459.19,-90.96C458.87,-83.13 458.53,-74.79 458.2,-66.83"/>
<polygon fill="black" stroke="black" points="461.71,-66.92 457.8,-57.07 454.71,-67.2 461.71,-66.92"/>
</g>
<!-- 6 -->
<g id="node7" class="node">
<title>6</title>
<path fill="#e58139" stroke="black" d="M692.5,-55.25C692.5,-55.25 576.75,-55.25 576.75,-55.25 570.75,-55.25 564.75,-49.25 564.75,-43.25 564.75,-43.25 564.75,-12 564.75,-12 564.75,-6 570.75,0 576.75,0 576.75,0 692.5,0 692.5,0 698.5,0 704.5,-6 704.5,-12 704.5,-12 704.5,-43.25 704.5,-43.25 704.5,-49.25 698.5,-55.25 692.5,-55.25"/>
<text text-anchor="middle" x="634.62" y="-37.95" font-family="Helvetica,sans-Serif" font-size="14.00">squared_error = &#45;0.0</text>
<text text-anchor="middle" x="634.62" y="-22.2" font-family="Helvetica,sans-Serif" font-size="14.00">samples = 1</text>
<text text-anchor="middle" x="634.62" y="-6.45" font-family="Helvetica,sans-Serif" font-size="14.00">value = 13166.667</text>
</g>
<!-- 4&#45;&gt;6 -->
<g id="edge6" class="edge">
<title>4&#45;&gt;6</title>
<path fill="none" stroke="black" d="M522.95,-90.96C540.31,-81.27 559.11,-70.78 576.23,-61.22"/>
<polygon fill="black" stroke="black" points="577.76,-64.38 584.78,-56.45 574.34,-58.27 577.76,-64.38"/>
</g>
</g>
</svg>